<?xml version="1.0" standalone="no"?><!DOCTYPE svg PUBLIC "-//W3C//DTD SVG 1.1//EN" "http://www.w3.org/Graphics/SVG/1.1/DTD/svg11.dtd"><svg width="100%" height="100%" viewBox="0 0 284 284" version="1.1" xmlns="http://www.w3.org/2000/svg" xmlns:xlink="http://www.w3.org/1999/xlink" xml:space="preserve" style="fill-rule:evenodd;clip-rule:evenodd;stroke-linejoin:round;stroke-miterlimit:1.41421;"><path d="M273.28,10.726c-7.15,-7.152 -15.718,-10.726 -25.699,-10.726l-211.154,0c-9.985,0 -18.55,3.575 -25.702,10.726c-7.15,7.148 -10.724,15.715 -10.724,25.697l0,211.151c0,9.982 3.573,18.551 10.724,25.7c7.152,7.149 15.719,10.726 25.702,10.726l211.151,0c9.98,0 18.55,-3.577 25.7,-10.726c7.152,-7.149 10.723,-15.718 10.723,-25.7l0,-211.151c-0.001,-9.984 -3.571,-18.546 -10.721,-25.697ZM101.974,102.338c11.155,-10.784 24.56,-16.178 40.215,-16.178c15.776,0 29.242,5.394 40.399,16.178c11.157,10.786 16.732,23.823 16.732,39.107c0,15.282 -5.575,28.319 -16.732,39.102c-11.157,10.788 -24.619,16.182 -40.399,16.182c-15.654,0 -29.058,-5.398 -40.215,-16.182c-11.157,-10.784 -16.735,-23.82 -16.735,-39.102c0,-15.284 5.578,-28.32 16.735,-39.107ZM251.834,239.997c0,3.202 -1.113,5.882 -3.33,8.04c-2.223,2.157 -4.869,3.236 -7.954,3.236l-197.651,0c-3.204,0 -5.887,-1.079 -8.043,-3.236c-2.158,-2.153 -3.236,-4.838 -3.236,-8.04l0,-119.817l26.069,0c-2.464,7.767 -3.696,15.842 -3.696,24.222c0,23.672 8.627,43.853 25.884,60.558c17.259,16.7 38.029,25.053 62.311,25.053c16.025,0 30.816,-3.823 44.379,-11.464c13.559,-7.647 24.277,-18.029 32.171,-31.158c7.89,-13.128 11.835,-27.459 11.835,-42.988c0,-8.381 -1.237,-16.454 -3.702,-24.222l24.964,0l0,119.816l-0.001,0l0,0ZM251.834,74.88c0,3.575 -1.233,6.596 -3.702,9.06c-2.464,2.467 -5.483,3.699 -9.06,3.699l-32.17,0c-3.573,0 -6.596,-1.232 -9.06,-3.699c-2.465,-2.464 -3.697,-5.485 -3.697,-9.06l0,-30.505c0,-3.451 1.232,-6.44 3.697,-8.968c2.464,-2.526 5.487,-3.791 9.06,-3.791l32.17,0c3.577,0 6.596,1.264 9.06,3.791c2.469,2.528 3.702,5.517 3.702,8.968l0,30.505Z" style="fill:#737373;fill-rule:nonzero;"/></svg>