<?xml version="1.0" standalone="no"?><!DOCTYPE svg PUBLIC "-//W3C//DTD SVG 1.1//EN" "http://www.w3.org/Graphics/SVG/1.1/DTD/svg11.dtd"><svg width="100%" height="100%" viewBox="0 0 284 285" version="1.1" xmlns="http://www.w3.org/2000/svg" xmlns:xlink="http://www.w3.org/1999/xlink" xml:space="preserve" style="fill-rule:evenodd;clip-rule:evenodd;stroke-linejoin:round;stroke-miterlimit:1.41421;"><path d="M264.968,70.722c-12.699,-21.755 -29.923,-38.98 -51.679,-51.677c-21.755,-12.698 -45.513,-19.045 -71.278,-19.045c-25.763,0 -49.523,6.347 -71.278,19.045c-21.758,12.696 -38.983,29.92 -51.68,51.677c-12.7,21.758 -19.048,45.516 -19.048,71.28c0,28.722 7.827,54.795 23.482,78.211c15.654,23.426 36.178,40.743 61.571,51.96c-0.494,-13.189 0.308,-24.098 2.402,-32.726l18.306,-77.292c-3.083,-6.042 -4.623,-13.555 -4.623,-22.557c0,-10.476 2.648,-19.227 7.949,-26.255c5.302,-7.027 11.772,-10.54 19.415,-10.54c6.162,0 10.907,2.034 14.236,6.101c3.33,4.069 4.99,9.184 4.99,15.348c0,3.819 -0.712,8.474 -2.13,13.959c-1.417,5.486 -3.265,11.834 -5.545,19.046c-2.28,7.209 -3.915,12.976 -4.9,17.286c-1.724,7.518 -0.308,13.958 4.253,19.324c4.561,5.361 10.603,8.045 18.123,8.045c13.188,0 24.004,-7.333 32.45,-22.001c8.444,-14.671 12.663,-32.484 12.663,-53.437c0,-16.151 -5.208,-29.279 -15.626,-39.384c-10.417,-10.109 -24.931,-15.165 -43.545,-15.165c-20.828,0 -37.687,6.688 -50.568,20.062c-12.882,13.376 -19.322,29.371 -19.322,47.982c0,11.095 3.143,20.404 9.429,27.921c2.095,2.464 2.774,5.115 2.034,7.952c-0.247,0.74 -0.739,2.588 -1.479,5.545c-0.737,2.956 -1.233,4.871 -1.478,5.732c-0.985,3.944 -3.328,5.177 -7.026,3.696c-9.491,-3.94 -16.703,-10.784 -21.632,-20.522c-4.931,-9.738 -7.397,-21.019 -7.397,-33.836c0,-8.259 1.325,-16.517 3.976,-24.775c2.648,-8.261 6.779,-16.241 12.386,-23.946c5.611,-7.706 12.329,-14.517 20.156,-20.431c7.825,-5.916 17.348,-10.662 28.566,-14.236c11.217,-3.575 23.296,-5.363 36.24,-5.363c17.506,0 33.219,3.883 47.146,11.648c13.932,7.767 24.561,17.811 31.897,30.139c7.336,12.328 11.001,25.518 11.001,39.57c0,18.489 -3.204,35.129 -9.612,49.922c-6.409,14.791 -15.469,26.409 -27.182,34.851c-11.711,8.446 -25.022,12.668 -39.942,12.668c-7.517,0 -14.543,-1.758 -21.079,-5.269c-6.531,-3.514 -11.032,-7.672 -13.496,-12.481c-5.547,21.815 -8.876,34.822 -9.986,39.012c-2.342,8.749 -7.149,18.859 -14.423,30.321c13.19,3.945 26.625,5.913 40.308,5.913c25.763,0 49.524,-6.347 71.279,-19.046c21.756,-12.695 38.981,-29.92 51.676,-51.675c12.697,-21.759 19.044,-45.519 19.044,-71.28c0.007,-25.761 -6.331,-49.522 -19.024,-71.277Z" style="fill:#737373;fill-rule:nonzero;"/></svg>