<?xml version="1.0" encoding="utf-8"?>
<!-- Generator: Adobe Illustrator 16.0.0, SVG Export Plug-In . SVG Version: 6.00 Build 0)  -->
<!DOCTYPE svg PUBLIC "-//W3C//DTD SVG 1.1//EN" "http://www.w3.org/Graphics/SVG/1.1/DTD/svg11.dtd">
<svg version="1.1" id="Layer_1" xmlns:sketch="http://www.bohemiancoding.com/sketch/ns"
	 xmlns="http://www.w3.org/2000/svg" xmlns:xlink="http://www.w3.org/1999/xlink" x="0px" y="0px" width="45px" height="44.988px"
	 viewBox="0 0 45 44.988" enable-background="new 0 0 45 44.988" xml:space="preserve">
<title>facebook</title>
<desc>Created with Sketch.</desc>
<g>
	<path fill="#686868" d="M22.5,44.994c-12.406,0-22.5-10.093-22.5-22.5c0-12.406,10.094-22.5,22.5-22.5
		c12.408,0,22.5,10.094,22.5,22.5C45,34.902,34.907,44.994,22.5,44.994z M22.5,2.806c-10.855,0-19.687,8.832-19.687,19.688
		S11.645,42.181,22.5,42.181c10.855,0,19.688-8.832,19.688-19.688C42.188,11.637,33.355,2.806,22.5,2.806z"/>
</g>
<g id="Page-1" sketch:type="MSPage">
	<g id="linkedin" transform="translate(2.570313, 2.130792)" sketch:type="MSLayerGroup">
		<path id="Shape" sketch:type="MSShapeGroup" fill="#686868" d="M17.882,28.598h4.002v-6.53c0-0.351,0.025-0.699,0.132-0.948
			c0.289-0.699,0.947-1.423,2.053-1.423c1.449,0,2.027,1.072,2.027,2.646v6.257h4.002v-6.706c0-3.593-1.975-5.265-4.607-5.265
			c-2.158,0-3.106,1.172-3.633,1.971h0.026v-1.696h-4.002C17.934,18,17.882,28.598,17.882,28.598L17.882,28.598L17.882,28.598z
			 M15.667,28.598V16.903h-4v11.695H15.667L15.667,28.598z M13.667,15.305c1.395,0,2.264-0.897,2.264-2.021
			c-0.027-1.148-0.869-2.021-2.238-2.021c-1.369,0-2.264,0.874-2.264,2.021c0,1.123,0.868,2.021,2.211,2.021H13.667L13.667,15.305z"
			/>
	</g>
</g>
</svg>
