<?xml version="1.0" encoding="utf-8"?>
<!-- Generator: Adobe Illustrator 16.0.0, SVG Export Plug-In . SVG Version: 6.00 Build 0)  -->
<!DOCTYPE svg PUBLIC "-//W3C//DTD SVG 1.1//EN" "http://www.w3.org/Graphics/SVG/1.1/DTD/svg11.dtd">
<svg version="1.1" id="Layer_1" xmlns:sketch="http://www.bohemiancoding.com/sketch/ns"
	 xmlns="http://www.w3.org/2000/svg" xmlns:xlink="http://www.w3.org/1999/xlink" x="0px" y="0px" width="45px" height="44.988px"
	 viewBox="0 0 45 44.988" enable-background="new 0 0 45 44.988" xml:space="preserve">
<title>facebook</title>
<desc>Created with Sketch.</desc>
<circle fill="#DD3838" cx="22.5" cy="22.493" r="22.5"/>
<g id="Page-1" sketch:type="MSPage">
	<g id="rss" transform="translate(3.056775, 2.130792)" sketch:type="MSLayerGroup">
		<path id="Shape" sketch:type="MSShapeGroup" fill="#FFFFFF" d="M11.707,13.972c8.146,0,14.772,6.475,14.772,14.432h3.521
			c0-9.845-8.207-17.853-18.294-17.853V13.972L11.707,13.972z M11.702,20.039c2.286,0,4.434,0.867,6.048,2.443
			c1.618,1.578,2.509,3.681,2.509,5.918h3.521c0-6.498-5.419-11.783-12.079-11.783L11.702,20.039L11.702,20.039z M16.578,26.014
			c0,1.309-1.093,2.369-2.439,2.369c-1.347,0-2.439-1.062-2.439-2.369c0-1.31,1.092-2.371,2.439-2.371
			C15.485,23.643,16.578,24.705,16.578,26.014z"/>
	</g>
</g>
</svg>
