<?xml version="1.0" encoding="utf-8"?>
<!-- Generator: Adobe Illustrator 16.0.0, SVG Export Plug-In . SVG Version: 6.00 Build 0)  -->
<!DOCTYPE svg PUBLIC "-//W3C//DTD SVG 1.1//EN" "http://www.w3.org/Graphics/SVG/1.1/DTD/svg11.dtd">
<svg version="1.1" id="Layer_1" xmlns:sketch="http://www.bohemiancoding.com/sketch/ns"
	 xmlns="http://www.w3.org/2000/svg" xmlns:xlink="http://www.w3.org/1999/xlink" x="0px" y="0px" width="45px" height="44.988px"
	 viewBox="-10 -10.083 45 44.988" enable-background="new -10 -10.083 45 44.988" xml:space="preserve">
<title>facebook</title>
<desc>Created with Sketch.</desc>
<g>
	<path fill="#686868" d="M12.5,34.904c-12.406,0-22.5-10.093-22.5-22.5c0-12.406,10.094-22.5,22.5-22.5
		c12.408,0,22.5,10.094,22.5,22.5C35,24.812,24.907,34.904,12.5,34.904z M12.5-7.283c-10.855,0-19.687,8.832-19.687,19.687
		c0,10.856,8.832,19.688,19.687,19.688c10.856,0,19.688-8.832,19.688-19.688C32.188,1.548,23.355-7.283,12.5-7.283z"/>
</g>
<g id="Page-1" sketch:type="MSPage">
	<g id="twitter" transform="translate(0.719962, 3.130792)" sketch:type="MSLayerGroup">
		<path id="Shape" sketch:type="MSShapeGroup" fill="#686868" d="M23.136,2.611c-0.799,0.351-1.657,0.588-2.558,0.694
			c0.919-0.545,1.626-1.409,1.958-2.438c-0.86,0.505-1.814,0.872-2.828,1.069c-0.812-0.857-1.97-1.392-3.251-1.392
			c-2.461,0-4.455,1.973-4.455,4.406c0,0.346,0.04,0.682,0.116,1.005C8.416,5.773,5.134,4.018,2.937,1.352
			C2.554,2.003,2.334,2.76,2.334,3.567c0,1.529,0.786,2.877,1.981,3.668c-0.73-0.023-1.417-0.221-2.017-0.551
			c0,0.018,0,0.037,0,0.056c0,2.135,1.535,3.915,3.573,4.32c-0.374,0.101-0.767,0.155-1.174,0.155c-0.287,0-0.565-0.028-0.838-0.079
			c0.567,1.75,2.212,3.025,4.161,3.061c-1.524,1.182-3.445,1.886-5.532,1.886c-0.359,0-0.714-0.021-1.062-0.062
			c1.971,1.251,4.312,1.981,6.828,1.981c8.193,0,12.673-6.717,12.673-12.54c0-0.191-0.006-0.381-0.013-0.57
			C21.784,4.272,22.538,3.496,23.136,2.611L23.136,2.611z"/>
	</g>
</g>
</svg>
