<?xml version="1.0" encoding="utf-8"?>
<!-- Generator: Adobe Illustrator 17.1.0, SVG Export Plug-In . SVG Version: 6.00 Build 0)  -->
<!DOCTYPE svg PUBLIC "-//W3C//DTD SVG 1.1//EN" "http://www.w3.org/Graphics/SVG/1.1/DTD/svg11.dtd">
<svg version="1.1" id="Layer_1" xmlns="http://www.w3.org/2000/svg" xmlns:xlink="http://www.w3.org/1999/xlink" x="0px" y="0px"
	 viewBox="126.7 126.7 30 30" enable-background="new 126.7 126.7 30 30" xml:space="preserve">
<g id="Facebook" display="none">
	<path display="inline" fill="#FFFFFF" d="M82.7,100.5h27V88.3v-12v-2c0-11.5,0.3-29.4,8.7-40.4c8.8-11.7,21-19.6,41.9-19.6
		c34,0,48.4,4.8,48.4,4.8L202,59c0,0-11.2-3.3-21.8-3.3s-19.9,3.8-19.9,14.2v4.2v14v12.2h43l-3,39.1h-40v135.7h-50.6V139.6h-27
		L82.7,100.5L82.7,100.5L82.7,100.5z"/>
</g>
<g id="Twitter" display="none">
	<path display="inline" fill="#FFFFFF" d="M270.2,67.5c-9.2,4.1-19,6.8-29.3,8c10.5-6.3,18.6-16.3,22.5-28.3
		c-9.9,5.9-20.8,10.1-32.4,12.4c-9.3-9.9-22.6-16.1-37.3-16.1c-28.2,0-51.1,22.9-51.1,51.1c0,4,0.5,7.9,1.3,11.6
		c-42.5-2.1-80.1-22.5-105.3-53.4c-4.4,7.5-6.9,16.3-6.9,25.7c0,17.7,9,33.4,22.7,42.5c-8.4-0.3-16.3-2.6-23.1-6.4
		c0,0.2,0,0.4,0,0.6c0,24.8,17.6,45.4,41,50.1c-4.3,1.2-8.8,1.8-13.5,1.8c-3.3,0-6.5-0.3-9.6-0.9c6.5,20.3,25.4,35.1,47.7,35.5
		c-17.5,13.7-39.5,21.9-63.4,21.9c-4.1,0-8.2-0.2-12.2-0.7c22.6,14.5,49.5,23,78.3,23c94,0,145.3-77.8,145.3-145.4
		c0-2.2-0.1-4.4-0.1-6.6C254.7,86.8,263.4,77.8,270.2,67.5z"/>
</g>
<g id="YouTube" display="none">
	<g display="inline">
		<g>
			<path fill="#FFFFFF" d="M46,4h19.9l12.8,51.1h1.2L92.1,4h20.1l-23,74.8v53H69.5V81.2L46,4z"/>
			<path fill="#FFFFFF" d="M111.3,59.1c0-7.3,2.4-13.1,7.1-17.4c4.7-4.3,11.1-6.5,19-6.5c7.3,0,13.2,2.3,17.8,6.8s7,10.4,7,17.6
				v48.7c0,8.1-2.3,14.4-6.8,19c-4.5,4.6-10.8,6.9-18.8,6.9c-7.7,0-13.8-2.4-18.4-7.1c-4.6-4.7-6.9-11.1-6.9-19.1
				C111.3,108,111.3,59.1,111.3,59.1z M129.4,109.8c0,2.6,0.6,4.6,1.9,6c1.2,1.4,3,2.1,5.4,2.1c2.4,0,4.3-0.7,5.7-2.2
				c1.4-1.4,2.1-3.4,2.1-6V58.4c0-2.1-0.7-3.7-2.1-5c-1.4-1.3-3.3-1.9-5.6-1.9c-2.1,0-3.9,0.6-5.2,1.9c-1.3,1.3-2,2.9-2,5
				L129.4,109.8L129.4,109.8z"/>
			<path fill="#FFFFFF" d="M227.1,37.5v94.3h-17.5v-10.4c-3.2,3.8-6.6,6.8-10.1,8.8c-3.5,2-6.9,3-10.2,3c-4.1,0-7.1-1.4-9.2-4.2
				c-2.1-2.8-3.1-7-3.1-12.6V37.5h17.5v72.3c0,2.2,0.4,3.9,1.1,4.9c0.7,1,1.9,1.5,3.6,1.5c1.3,0,2.9-0.7,4.9-2c2-1.3,3.8-3,5.4-5.1
				V37.5H227.1z"/>
		</g>
		<g>
			<path fill="#FFFFFF" d="M93.1,172.6H44v15h16.5v88.5h16v-88.5h16.5V172.6z M119.2,257.7c-1.3,1.7-2.8,3-4.4,4.1
				c-1.6,1.1-2.9,1.6-4,1.6c-1.3,0-2.3-0.4-2.9-1.2c-0.6-0.8-0.9-2.1-0.9-3.9v-58.5H92.9v63.8c0,4.5,0.8,8,2.5,10.2
				c1.7,2.3,4.1,3.4,7.4,3.4c2.7,0,5.4-0.8,8.2-2.4c2.8-1.6,5.6-4,8.2-7.1v8.4h14.2v-76.4h-14.2V257.7z M174.2,198.8
				c-2.2,0-4.4,0.6-6.5,1.8c-2.1,1.2-4.2,3-6.1,5.3v-33.3h-14.3v103.5h14.3v-5.9c1.9,2.3,3.9,4,6.1,5.2c2.2,1.1,4.6,1.7,7.4,1.7
				c4.2,0,7.4-1.4,9.6-4.3c2.2-2.9,3.3-7,3.3-12.5v-42.4c0-6.2-1.2-11-3.6-14.3C182.1,200.4,178.7,198.8,174.2,198.8z M173.4,258.2
				c0,2.4-0.4,4.2-1.2,5.3c-0.8,1.1-2.1,1.6-3.8,1.6c-1.2,0-2.4-0.3-3.4-0.8c-1.1-0.5-2.2-1.4-3.4-2.7V214c1-1.1,1.9-1.8,2.9-2.3
				c1-0.5,2-0.8,3-0.8c1.9,0,3.4,0.7,4.4,2c1,1.3,1.5,3.3,1.5,5.9L173.4,258.2L173.4,258.2z M240.5,239.7v-19.4
				c0-7.2-1.7-12.8-5.2-16.7c-3.5-3.9-8.5-5.8-15-5.8c-6.4,0-11.5,2.1-15.5,6.3c-4,4.2-6,9.6-6,16.2v34.3c0,7.4,1.8,13.1,5.5,17.3
				c3.7,4.2,8.7,6.3,15,6.3c7.1,0,12.4-2,15.9-5.9s5.3-9.9,5.3-17.7v-5.7h-14.6v5.3c0,4.5-0.5,7.4-1.4,8.7c-0.9,1.3-2.6,2-4.9,2
				c-2.3,0-3.9-0.8-4.8-2.3c-0.9-1.6-1.4-4.3-1.4-8.4v-14.4L240.5,239.7L240.5,239.7z M213.4,220.1c0-3.2,0.5-5.5,1.5-6.9
				c1-1.4,2.6-2.1,4.9-2.1c2.2,0,3.7,0.7,4.7,2.1c1,1.4,1.5,3.7,1.5,6.9v7.7h-12.5V220.1z"/>
			<path fill="#FFFFFF" d="M93.1,173.7H44v15h16.5v88.5h16v-88.5h16.5V173.7z M119.2,258.8c-1.3,1.7-2.8,3-4.4,4.1
				c-1.6,1.1-2.9,1.6-4,1.6c-1.3,0-2.3-0.4-2.9-1.2s-0.9-2.1-0.9-3.9v-58.5H92.9v63.8c0,4.5,0.8,8,2.5,10.2c1.7,2.3,4.1,3.4,7.4,3.4
				c2.7,0,5.4-0.8,8.2-2.4c2.8-1.6,5.6-4,8.2-7.1v8.4h14.2v-76.4h-14.2V258.8z M174.2,199.9c-2.2,0-4.4,0.6-6.5,1.8
				c-2.1,1.2-4.2,3-6.1,5.3v-33.3h-14.3v103.5h14.3v-5.9c1.9,2.3,3.9,4,6.1,5.2c2.2,1.1,4.6,1.7,7.4,1.7c4.2,0,7.4-1.4,9.6-4.3
				c2.2-2.9,3.3-7,3.3-12.5V219c0-6.2-1.2-11-3.6-14.2C182.1,201.5,178.7,199.9,174.2,199.9z M173.4,259.3c0,2.4-0.4,4.2-1.2,5.3
				c-0.8,1.1-2.1,1.6-3.8,1.6c-1.2,0-2.4-0.3-3.4-0.8c-1.1-0.5-2.2-1.4-3.4-2.7v-47.6c1-1.1,1.9-1.8,2.9-2.3c1-0.5,2-0.8,3-0.8
				c1.9,0,3.4,0.7,4.4,2c1,1.3,1.5,3.3,1.5,5.9L173.4,259.3L173.4,259.3z M240.5,240.8v-19.4c0-7.2-1.7-12.8-5.2-16.7
				c-3.5-3.9-8.5-5.8-15-5.8c-6.4,0-11.5,2.1-15.5,6.3c-4,4.2-6,9.6-6,16.2v34.3c0,7.4,1.8,13.1,5.5,17.3c3.7,4.2,8.7,6.3,15,6.3
				c7.1,0,12.4-2,15.9-5.9c3.6-4,5.3-9.9,5.3-17.7v-5.7h-14.6v5.3c0,4.5-0.5,7.4-1.4,8.7c-0.9,1.3-2.6,2-4.9,2
				c-2.3,0-3.9-0.8-4.8-2.3c-0.9-1.6-1.4-4.3-1.4-8.4v-14.4L240.5,240.8L240.5,240.8z M213.4,221.2c0-3.2,0.5-5.5,1.5-6.9
				c1-1.4,2.6-2.1,4.9-2.1c2.2,0,3.7,0.7,4.7,2.1c1,1.4,1.5,3.7,1.5,6.9v7.7h-12.5V221.2z"/>
		</g>
	</g>
</g>
<g id="RSS" display="none">
	<g id="lines__x003C_Group_x003E_" display="inline">
		<path id="circle" fill="#FFFFFF" d="M91.8,220.4c0,15.8-12.8,28.5-28.5,28.5c-15.8,0-28.5-12.8-28.5-28.5
			c0-15.8,12.8-28.5,28.5-28.5C79,191.9,91.8,204.7,91.8,220.4z"/>
		<g>
			<path fill="#FFFFFF" d="M34.7,148.5c26.7,0,51.9,10.4,70.8,29.4c18.9,19,29.3,44.3,29.3,71.2H176c0-78.2-63.4-141.9-141.3-141.9
				C34.7,107.3,34.7,148.5,34.7,148.5z"/>
		</g>
		<g>
			<path fill="#FFFFFF" d="M34.8,75.5c95.3,0,172.8,77.9,172.8,173.7h41.2c0-118.5-96-214.9-214-214.9
				C34.8,34.3,34.8,75.5,34.8,75.5z"/>
		</g>
	</g>
</g>
<g id="Linkedin" display="none">
	<path display="inline" fill="#FFFFFF" d="M79.5,250.7V103.6H30.6v147.1H79.5L79.5,250.7z M55,83.6c17,0,27.7-11.3,27.7-25.4
		c-0.3-14.4-10.6-25.4-27.3-25.4c-16.7,0-27.7,11-27.7,25.4c0,14.1,10.6,25.4,27,25.4H55L55,83.6z"/>
	<path display="inline" fill="#FFFFFF" d="M106.5,250.7h48.9v-82.1c0-4.4,0.3-8.8,1.6-11.9c3.5-8.8,11.6-17.9,25.1-17.9
		c17.7,0,24.8,13.5,24.8,33.3v78.7h48.9v-84.3c0-45.2-24.1-66.2-56.3-66.2c-26.4,0-38,14.7-44.4,24.8h0.3v-21.3h-48.9
		C107.2,117.4,106.5,250.7,106.5,250.7L106.5,250.7z"/>
</g>
<g id="Google_x2B_">
	<g>
		<path fill="#77787B" d="M139.2,141.1c0-1.2,2.6-1.5,2.6-4.3c0-1.7-0.2-2.6-1.5-3.2c0-0.4,2.3-0.1,2.3-0.9c-0.4,0-5,0-5,0
			s-5.1,0.1-5.1,4.4c0,4.3,4.5,3.8,4.5,3.8s0,0.7,0,1.1c0,0.4,0.6,0.3,0.7,1.2c-0.3,0-6.2-0.2-6.2,3.7c0,3.9,5.2,3.7,5.2,3.7
			s6,0.3,6-4.6C142.6,143.2,139.2,142.3,139.2,141.1z M134.8,137.4c-0.5-1.7,0.1-3.4,1.4-3.7c1.2-0.3,2.6,0.8,3.1,2.5
			c0.5,1.7-0.1,3.4-1.4,3.7C136.7,140.3,135.3,139.2,134.8,137.4z M137.4,149.5c-2.1,0.1-3.8-1-3.9-2.5c-0.1-1.5,1.5-2.9,3.6-3
			c2.1-0.1,3.8,1,3.9,2.5C141.1,148,139.5,149.3,137.4,149.5z"/>
		<polygon fill="#77787B" points="152,136.2 152,137.3 148.5,137.3 148.5,140.8 147.5,140.8 147.5,137.3 144,137.3 144,136.2 
			147.5,136.2 147.5,132.7 148.5,132.7 148.5,136.2 		"/>
	</g>
</g>
</svg>
