<?xml version="1.0" encoding="utf-8"?>
<!-- Generator: Adobe Illustrator 16.0.0, SVG Export Plug-In . SVG Version: 6.00 Build 0)  -->
<!DOCTYPE svg PUBLIC "-//W3C//DTD SVG 1.1//EN" "http://www.w3.org/Graphics/SVG/1.1/DTD/svg11.dtd">
<svg version="1.1" id="Layer_1" xmlns:sketch="http://www.bohemiancoding.com/sketch/ns"
	 xmlns="http://www.w3.org/2000/svg" xmlns:xlink="http://www.w3.org/1999/xlink" x="0px" y="0px" width="45px" height="44.988px"
	 viewBox="-10 -10.083 45 44.988" enable-background="new -10 -10.083 45 44.988" xml:space="preserve">
<title>facebook</title>
<desc>Created with Sketch.</desc>
<g>
	<path fill="#686868" d="M12.5,34.904c-12.406,0-22.5-10.093-22.5-22.5c0-12.406,10.094-22.5,22.5-22.5
		c12.408,0,22.5,10.094,22.5,22.5C35,24.812,24.907,34.904,12.5,34.904z M12.5-7.283c-10.855,0-19.687,8.832-19.687,19.687
		c0,10.856,8.832,19.688,19.687,19.688c10.856,0,19.688-8.832,19.688-19.688C32.188,1.548,23.355-7.283,12.5-7.283z"/>
</g>
<g id="Page-1_1_" sketch:type="MSPage">
	<g id="googleplus" transform="translate(0.000000, 2.289669)" sketch:type="MSLayerGroup">
		<path id="Shape_1_" sketch:type="MSShapeGroup" fill="#686868" d="M10.963,11.14c0-1.246,2.769-1.605,2.769-4.527
			c0-1.753-0.164-2.81-1.561-3.432c0-0.435,2.467-0.149,2.467-0.96H9.234c0,0-5.47,0.131-5.47,4.708
			c0,4.576,4.782,4.046,4.782,4.046v1.16c0,0.467,0.642,0.312,0.721,1.261c-0.323,0-6.644-0.166-6.644,3.978
			c0,4.145,5.57,3.947,5.57,3.947s6.444,0.29,6.444-4.858C14.638,13.377,10.963,12.382,10.963,11.14L10.963,11.14z M6.295,7.193
			C5.79,5.355,6.456,3.577,7.784,3.221c1.328-0.358,2.814,0.841,3.32,2.679c0.506,1.84-0.161,3.618-1.488,3.976
			C8.288,10.232,6.801,9.032,6.295,7.193L6.295,7.193z M9.062,19.995c-2.23,0.151-4.127-1.03-4.236-2.64
			c-0.111-1.606,1.607-3.029,3.837-3.179c2.23-0.148,4.127,1.031,4.238,2.638C13.011,18.423,11.292,19.846,9.062,19.995
			L9.062,19.995z M24.771,5.934v1.094h-3.761v3.713h-1.107V7.029h-3.757V5.934h3.757V2.218h1.107v3.717H24.771z"/>
	</g>
</g>
</svg>
