<?xml version="1.0" encoding="utf-8"?>
<!-- Generator: Adobe Illustrator 16.0.0, SVG Export Plug-In . SVG Version: 6.00 Build 0)  -->
<!DOCTYPE svg PUBLIC "-//W3C//DTD SVG 1.1//EN" "http://www.w3.org/Graphics/SVG/1.1/DTD/svg11.dtd">
<svg version="1.1" id="Layer_1" xmlns:sketch="http://www.bohemiancoding.com/sketch/ns"
	 xmlns="http://www.w3.org/2000/svg" xmlns:xlink="http://www.w3.org/1999/xlink" x="0px" y="0px" width="45px" height="44.988px"
	 viewBox="-10 -10.083 45 44.988" enable-background="new -10 -10.083 45 44.988" xml:space="preserve">
<title>facebook</title>
<desc>Created with Sketch.</desc>
<g>
	<path fill="#686868" d="M12.5,34.904c-12.406,0-22.5-10.093-22.5-22.5c0-12.406,10.094-22.5,22.5-22.5
		c12.408,0,22.5,10.094,22.5,22.5C35,24.812,24.907,34.904,12.5,34.904z M12.5-7.283c-10.855,0-19.687,8.832-19.687,19.687
		c0,10.856,8.832,19.688,19.687,19.688c10.856,0,19.688-8.832,19.688-19.688C32.188,1.548,23.355-7.283,12.5-7.283z"/>
</g>
<g id="Page-1" sketch:type="MSPage">
	<g id="rss" transform="translate(3.056775, 2.130792)" sketch:type="MSLayerGroup">
		<path id="Shape" sketch:type="MSShapeGroup" fill="#686868" d="M1.707,3.883c8.146,0,14.773,6.474,14.773,14.431h3.521
			c0-9.844-8.207-17.852-18.294-17.852V3.883L1.707,3.883z M1.702,9.949c2.286,0,4.434,0.867,6.048,2.443
			c1.618,1.579,2.508,3.681,2.508,5.918h3.522c0-6.498-5.419-11.783-12.079-11.783V9.949L1.702,9.949z M6.578,15.925
			c0,1.308-1.093,2.369-2.439,2.369c-1.347,0-2.439-1.062-2.439-2.369c0-1.31,1.092-2.371,2.439-2.371
			C5.485,13.554,6.578,14.615,6.578,15.925z"/>
	</g>
</g>
</svg>
