<?xml version="1.0" encoding="utf-8"?>
<!-- Generator: Adobe Illustrator 16.0.0, SVG Export Plug-In . SVG Version: 6.00 Build 0)  -->
<!DOCTYPE svg PUBLIC "-//W3C//DTD SVG 1.1//EN" "http://www.w3.org/Graphics/SVG/1.1/DTD/svg11.dtd">
<svg version="1.1" id="Layer_1" xmlns:sketch="http://www.bohemiancoding.com/sketch/ns"
	 xmlns="http://www.w3.org/2000/svg" xmlns:xlink="http://www.w3.org/1999/xlink" x="0px" y="0px" width="45px" height="44.988px"
	 viewBox="0 0 45 44.988" enable-background="new 0 0 45 44.988" xml:space="preserve">
<circle fill="#DD3838" cx="22.5" cy="22.491" r="22.5"/>
<title>facebook</title>
<desc>Created with Sketch.</desc>
<g id="Page-1_1_" sketch:type="MSPage">
	<g id="googleplus" transform="translate(0.000000, 2.289669)" sketch:type="MSLayerGroup">
		<path id="Shape_1_" sketch:type="MSShapeGroup" fill="#FFFFFF" d="M20.962,21.23c0-1.246,2.769-1.604,2.769-4.526
			c0-1.754-0.164-2.811-1.561-3.433c0-0.435,2.467-0.148,2.467-0.96h-5.404c0,0-5.47,0.131-5.47,4.708
			c0,4.576,4.782,4.046,4.782,4.046v1.16c0,0.467,0.642,0.312,0.721,1.261c-0.323,0-6.644-0.166-6.644,3.979s5.57,3.947,5.57,3.947
			s6.444,0.29,6.444-4.858C24.638,23.467,20.962,22.472,20.962,21.23L20.962,21.23z M16.294,17.282
			c-0.505-1.838,0.161-3.615,1.489-3.972c1.328-0.357,2.814,0.841,3.32,2.679c0.506,1.841-0.161,3.618-1.488,3.977
			C18.288,20.321,16.8,19.122,16.294,17.282L16.294,17.282z M19.062,30.085c-2.23,0.15-4.127-1.03-4.236-2.641
			c-0.111-1.605,1.607-3.028,3.837-3.179c2.23-0.147,4.127,1.031,4.238,2.638C23.011,28.513,21.292,29.936,19.062,30.085
			L19.062,30.085z M34.771,16.024v1.095H31.01v3.713h-1.107v-3.712h-3.757v-1.096h3.757v-3.716h1.107v3.717L34.771,16.024
			L34.771,16.024z"/>
	</g>
</g>
</svg>
