<?xml version="1.0" encoding="utf-8"?>
<!-- Generator: Adobe Illustrator 17.1.0, SVG Export Plug-In . SVG Version: 6.00 Build 0)  -->
<!DOCTYPE svg PUBLIC "-//W3C//DTD SVG 1.1//EN" "http://www.w3.org/Graphics/SVG/1.1/DTD/svg11.dtd">
<svg version="1.1" xmlns="http://www.w3.org/2000/svg" xmlns:xlink="http://www.w3.org/1999/xlink" x="0px" y="0px"
	 viewBox="126.7 126.7 30 30" enable-background="new 126.7 126.7 30 30" xml:space="preserve">
<g id="Layer_1">
	<g id="youtube_1_" enable-background="new    ">
		<g id="youtube">
			<g>
				<path fill="#77787B" d="M150.8,132.7l-8.6,0l-8.9,0c-2.2,0-4.7,1.5-4.7,3.7v10.8c0,2.2,2.5,3.5,4.7,3.5h17.4c2.2,0,4-1.3,4-3.5
					v-10.8C154.8,134.2,153,132.7,150.8,132.7z M140,145.9l-0.1-8.2l5.7,4.2L140,145.9z"/>
			</g>
		</g>
	</g>
	<g id="Facebook" display="none">
		<path display="inline" fill="#FFFFFF" d="M82.7,100.5h27V88.3v-12v-2c0-11.5,0.3-29.4,8.7-40.4c8.8-11.7,21-19.6,41.9-19.6
			c34,0,48.4,4.8,48.4,4.8L202,59c0,0-11.2-3.3-21.8-3.3s-19.9,3.8-19.9,14.2v4.2v14v12.2h43l-3,39.1h-40v135.7h-50.6V139.6h-27
			L82.7,100.5L82.7,100.5L82.7,100.5z"/>
	</g>
	<g id="Twitter" display="none">
		<path display="inline" fill="#FFFFFF" d="M270.2,67.5c-9.2,4.1-19,6.8-29.3,8c10.5-6.3,18.6-16.3,22.5-28.3
			c-9.9,5.9-20.8,10.1-32.4,12.4c-9.3-9.9-22.6-16.1-37.3-16.1c-28.2,0-51.1,22.9-51.1,51.1c0,4,0.5,7.9,1.3,11.6
			c-42.5-2.1-80.1-22.5-105.3-53.4c-4.4,7.5-6.9,16.3-6.9,25.7c0,17.7,9,33.4,22.7,42.5c-8.4-0.3-16.3-2.6-23.1-6.4
			c0,0.2,0,0.4,0,0.6c0,24.8,17.6,45.4,41,50.1c-4.3,1.2-8.8,1.8-13.5,1.8c-3.3,0-6.5-0.3-9.6-0.9c6.5,20.3,25.4,35.1,47.7,35.5
			c-17.5,13.7-39.5,21.9-63.4,21.9c-4.1,0-8.2-0.2-12.2-0.7c22.6,14.5,49.5,23,78.3,23c94,0,145.3-77.8,145.3-145.4
			c0-2.2-0.1-4.4-0.1-6.6C254.7,86.8,263.4,77.8,270.2,67.5z"/>
	</g>
</g>
<g id="Creative_Commons_License" display="none">
	
		<text id="Creative_Commons_License_1_" transform="matrix(1 0 0 1 -605 1413.0439)" display="inline" font-family="'MyriadPro-Regular'" font-size="12">With assets by Icomoon, Piotr Kwiatkowski / CC BY</text>
</g>
</svg>
