<?xml version="1.0" encoding="utf-8"?>
<!-- Generator: Adobe Illustrator 16.0.0, SVG Export Plug-In . SVG Version: 6.00 Build 0)  -->
<!DOCTYPE svg PUBLIC "-//W3C//DTD SVG 1.1//EN" "http://www.w3.org/Graphics/SVG/1.1/DTD/svg11.dtd">
<svg version="1.1" id="Layer_1" xmlns:sketch="http://www.bohemiancoding.com/sketch/ns"
	 xmlns="http://www.w3.org/2000/svg" xmlns:xlink="http://www.w3.org/1999/xlink" x="0px" y="0px" width="45px" height="44.988px"
	 viewBox="0 0 45 44.988" enable-background="new 0 0 45 44.988" xml:space="preserve">
<title>facebook</title>
<circle fill="#DD3838" cx="22.5" cy="22.493" r="22.5"/>
<desc>Created with Sketch.</desc>
<g id="Page-1" sketch:type="MSPage">
	<g id="twitter" transform="translate(0.719962, 3.130792)" sketch:type="MSLayerGroup">
		<path id="Shape" sketch:type="MSShapeGroup" fill="#FFFFFF" d="M33.136,12.701c-0.799,0.351-1.656,0.588-2.558,0.693
			c0.919-0.545,1.626-1.408,1.958-2.438c-0.859,0.505-1.814,0.872-2.828,1.069c-0.812-0.857-1.97-1.393-3.251-1.393
			c-2.461,0-4.455,1.974-4.455,4.406c0,0.346,0.04,0.682,0.116,1.005c-3.702-0.182-6.984-1.937-9.181-4.603
			c-0.383,0.65-0.603,1.407-0.603,2.215c0,1.528,0.786,2.877,1.981,3.668c-0.73-0.023-1.417-0.222-2.017-0.551
			c0,0.018,0,0.036,0,0.056c0,2.135,1.535,3.915,3.573,4.32c-0.374,0.101-0.767,0.154-1.174,0.154c-0.287,0-0.565-0.027-0.838-0.079
			c0.567,1.75,2.212,3.025,4.161,3.062c-1.524,1.182-3.445,1.886-5.532,1.886c-0.359,0-0.714-0.021-1.062-0.062
			c1.971,1.251,4.312,1.98,6.828,1.98c8.193,0,12.672-6.717,12.672-12.54c0-0.19-0.006-0.381-0.013-0.569
			C31.784,14.362,32.538,13.586,33.136,12.701L33.136,12.701z"/>
	</g>
</g>
</svg>
