<?xml version="1.0" encoding="utf-8"?>
<!-- Generator: Adobe Illustrator 16.0.0, SVG Export Plug-In . SVG Version: 6.00 Build 0)  -->
<!DOCTYPE svg PUBLIC "-//W3C//DTD SVG 1.1//EN" "http://www.w3.org/Graphics/SVG/1.1/DTD/svg11.dtd">
<svg version="1.1" id="Layer_1" xmlns:sketch="http://www.bohemiancoding.com/sketch/ns"
	 xmlns="http://www.w3.org/2000/svg" xmlns:xlink="http://www.w3.org/1999/xlink" x="0px" y="0px" width="45px" height="44.988px"
	 viewBox="0 0 45 44.988" enable-background="new 0 0 45 44.988" xml:space="preserve">
<circle fill="#DD3838" cx="22.5" cy="22.493" r="22.5"/>
<title>facebook</title>
<desc>Created with Sketch.</desc>
<g id="Page-1" sketch:type="MSPage">
	<g id="facebook" transform="translate(6.831897, 0.607422)" sketch:type="MSLayerGroup">
		<path id="Shape" sketch:type="MSShapeGroup" fill="#FFFFFF" d="M10.362,18.161h2.358v-1.032v-1.012v-0.169
			c0-0.974,0.026-2.479,0.759-3.41c0.772-0.986,1.834-1.656,3.658-1.656c2.973,0,4.227,0.408,4.227,0.408l-0.59,3.372
			c0,0-0.98-0.274-1.898-0.274c-0.916,0-1.737,0.316-1.737,1.201v0.358v1.181v1.032h3.759l-0.263,3.292h-3.497V32.89H12.72V21.453
			h-2.358V18.161L10.362,18.161z"/>
	</g>
</g>
</svg>
