<?xml version="1.0" encoding="utf-8"?>
<!-- Generator: Adobe Illustrator 16.0.0, SVG Export Plug-In . SVG Version: 6.00 Build 0)  -->
<!DOCTYPE svg PUBLIC "-//W3C//DTD SVG 1.1//EN" "http://www.w3.org/Graphics/SVG/1.1/DTD/svg11.dtd">
<svg version="1.1" id="Layer_1" xmlns:sketch="http://www.bohemiancoding.com/sketch/ns"
	 xmlns="http://www.w3.org/2000/svg" xmlns:xlink="http://www.w3.org/1999/xlink" x="0px" y="0px" width="45px" height="44.988px"
	 viewBox="-10 -10.083 45 44.988" enable-background="new -10 -10.083 45 44.988" xml:space="preserve">
<title>facebook</title>
<desc>Created with Sketch.</desc>
<g id="Page-1" sketch:type="MSPage">
	<g id="facebook" transform="translate(6.831897, 0.607422)" sketch:type="MSLayerGroup">
		<path id="Shape" sketch:type="MSShapeGroup" fill="#686868" d="M0.362,8.071H2.72V7.039V6.027V5.858
			c0-0.973,0.026-2.478,0.759-3.41c0.772-0.986,1.834-1.656,3.658-1.656c2.973,0,4.226,0.408,4.226,0.408l-0.59,3.372
			c0,0-0.98-0.274-1.898-0.274c-0.916,0-1.737,0.316-1.737,1.201v0.358v1.181v1.032h3.758l-0.262,3.292H7.137v11.438H2.72V11.363
			H0.362V8.071L0.362,8.071z"/>
	</g>
</g>
<g>
	<path fill="#686868" d="M12.5,34.904c-12.406,0-22.5-10.093-22.5-22.5c0-12.406,10.094-22.5,22.5-22.5
		c12.408,0,22.5,10.094,22.5,22.5C35,24.812,24.907,34.904,12.5,34.904z M12.5-7.283c-10.855,0-19.687,8.832-19.687,19.687
		c0,10.856,8.832,19.688,19.687,19.688c10.856,0,19.688-8.832,19.688-19.688C32.188,1.548,23.355-7.283,12.5-7.283z"/>
</g>
</svg>
