<?xml version="1.0" encoding="utf-8"?>
<!-- Generator: Adobe Illustrator 16.0.0, SVG Export Plug-In . SVG Version: 6.00 Build 0)  -->
<!DOCTYPE svg PUBLIC "-//W3C//DTD SVG 1.1//EN" "http://www.w3.org/Graphics/SVG/1.1/DTD/svg11.dtd">
<svg version="1.1" id="Layer_1" xmlns:sketch="http://www.bohemiancoding.com/sketch/ns"
	 xmlns="http://www.w3.org/2000/svg" xmlns:xlink="http://www.w3.org/1999/xlink" x="0px" y="0px" width="45px" height="44.988px"
	 viewBox="-10 -10.083 45 44.988" enable-background="new -10 -10.083 45 44.988" xml:space="preserve">
<circle fill="#DD3838" cx="12.5" cy="12.408" r="22.5"/>
<path fill="#FFFFFF" d="M20.158,5.305c-4.781-0.343-10.45-0.436-15.317,0c-1.511,0.18-2.546,2.14-2.659,3.628
	c-0.24,3.126-0.24,4.905,0,8.034c0.113,1.486,1.123,3.458,2.66,3.665c4.926,0.344,10.564,0.393,15.318,0
	c1.488-0.275,2.547-2.179,2.658-3.665c0.239-3.127,0.239-5.102,0-8.229C22.703,7.25,21.87,5.372,20.158,5.305z"/>
<title>facebook</title>
<desc>Created with Sketch.</desc>
<polygon fill="#DD3838" points="9.874,16.914 9.874,8.9 16.437,12.907 "/>
</svg>
